<?xml version="1.0" standalone="no"?>
<!DOCTYPE svg PUBLIC "-//W3C//DTD SVG 20010904//EN"
 "http://www.w3.org/TR/2001/REC-SVG-20010904/DTD/svg10.dtd">
<svg version="1.0" xmlns="http://www.w3.org/2000/svg"
 width="700.000000pt" height="700.000000pt" viewBox="0 0 700.000000 700.000000"
 preserveAspectRatio="xMidYMid meet">
<metadata>
Created by potrace 1.14, written by Peter Selinger 2001-2017
</metadata>
<g transform="translate(0.000000,700.000000) scale(0.100000,-0.100000)"
fill="#000000" stroke="none">
<path d="M2649 6296 c-2 -2 -26 -6 -54 -10 -185 -22 -409 -135 -561 -282 -158
-152 -264 -327 -345 -568 -18 -54 -37 -99 -43 -101 -451 -122 -778 -406 -897
-777 -71 -223 -61 -527 26 -775 25 -72 83 -209 108 -256 14 -26 13 -32 -24
-106 -61 -125 -115 -283 -134 -391 -4 -19 -10 -57 -15 -85 -9 -51 -7 -324 3
-360 3 -11 12 -49 20 -85 85 -360 399 -668 822 -806 l100 -32 37 -107 c144
-410 383 -673 728 -799 196 -71 471 -73 720 -5 79 22 261 93 324 127 l38 20
56 -28 c129 -64 271 -116 382 -139 30 -6 66 -14 80 -17 57 -14 317 -13 395 1
420 76 737 376 894 847 l32 97 94 30 c408 133 705 407 816 753 39 122 52 232
46 383 -9 205 -55 384 -152 588 l-43 91 22 41 c63 113 142 348 163 485 4 30 8
125 7 210 0 128 -4 171 -23 244 -45 175 -133 340 -251 469 -52 57 -173 156
-256 209 -69 44 -226 116 -327 149 l-96 31 -32 97 c-142 432 -426 723 -808
828 -86 24 -114 27 -271 27 -133 1 -195 -3 -258 -17 -123 -26 -285 -82 -383
-131 l-87 -43 -83 39 c-135 65 -277 113 -389 133 -109 20 -146 23 -256 23 -67
1 -123 -1 -125 -2z"/>
</g>
</svg>
