<svg width="24" height="25" viewBox="0 0 24 25" fill="var(--accent)" xmlns="http://www.w3.org/2000/svg">
<path d="M12 2.2002C10.6868 2.2002 9.38642 2.45885 8.17317 2.9614C6.95991 3.46395 5.85752 4.20054 4.92893 5.12913C3.05357 7.00449 2 9.54803 2 12.2002C2 16.6202 4.87 20.3702 8.84 21.7002C9.34 21.7802 9.5 21.4702 9.5 21.2002C9.5 20.9702 9.5 20.3402 9.5 19.5102C6.73 20.1102 6.14 18.1702 6.14 18.1702C5.68 17.0102 5.03 16.7002 5.03 16.7002C4.12 16.0802 5.1 16.1002 5.1 16.1002C6.1 16.1702 6.63 17.1302 6.63 17.1302C7.5 18.6502 8.97 18.2002 9.54 17.9602C9.63 17.3102 9.89 16.8702 10.17 16.6202C7.95 16.3702 5.62 15.5102 5.62 11.7002C5.62 10.5902 6 9.7002 6.65 8.9902C6.55 8.7402 6.2 7.7002 6.75 6.3502C6.75 6.3502 7.59 6.0802 9.5 7.3702C10.29 7.1502 11.15 7.0402 12 7.0402C12.85 7.0402 13.71 7.1502 14.5 7.3702C16.41 6.0802 17.25 6.3502 17.25 6.3502C17.8 7.7002 17.45 8.7402 17.35 8.9902C18 9.7002 18.38 10.5902 18.38 11.7002C18.38 15.5202 16.04 16.3602 13.81 16.6102C14.17 16.9202 14.5 17.5302 14.5 18.4602C14.5 19.8002 14.5 20.8802 14.5 21.2002C14.5 21.4702 14.66 21.7902 15.17 21.7002C19.14 20.3602 22 16.6202 22 12.2002C22 10.887 21.7413 9.58662 21.2388 8.37336C20.7362 7.1601 19.9997 6.05771 19.0711 5.12913C18.1425 4.20054 17.0401 3.46395 15.8268 2.9614C14.6136 2.45885 13.3132 2.2002 12 2.2002V2.2002Z"/>
</svg>
