<svg width="100" height="100" viewBox="0 0 100 100" fill="none" xmlns="http://www.w3.org/2000/svg">
<path d="M87.1461 49.9994C93.6068 62.0411 88.7255 72.9426 76.2666 76.2653C72.9426 88.7255 62.0411 93.6055 49.9994 87.1461C37.9577 93.6068 27.0561 88.7255 23.7334 76.2666C11.2745 72.9426 6.39325 62.0411 12.8539 49.9994C6.39325 37.9577 11.2745 27.0561 23.7334 23.7334C27.0561 11.2745 37.9577 6.39325 49.9994 12.8539C62.0411 6.39325 72.9426 11.2745 76.2653 23.7334C88.7255 27.0561 93.6055 37.9577 87.1461 49.9994Z" fill="white"/>
<path d="M87.1461 49.9994C93.6068 62.0411 88.7255 72.9426 76.2666 76.2653C72.9426 88.7255 62.0411 93.6055 49.9994 87.1461C37.9577 93.6068 27.0561 88.7255 23.7334 76.2666C11.2745 72.9426 6.39325 62.0411 12.8539 49.9994C6.39325 37.9577 11.2745 27.0561 23.7334 23.7334C27.0561 11.2745 37.9577 6.39325 49.9994 12.8539C62.0411 6.39325 72.9426 11.2745 76.2653 23.7334C88.7255 27.0561 93.6055 37.9577 87.1461 49.9994Z" fill="#FFDAD9"/>
<path d="M66.7512 41.8436C68.613 45.1793 69.2775 49.0515 68.6345 52.8171C67.9914 56.5827 66.0794 60.0149 63.2161 62.5436C60.3528 65.0724 56.7105 66.5454 52.8943 66.718C49.0781 66.8906 45.3177 65.7525 42.2378 63.4926C39.1579 61.2327 36.9438 57.9871 35.9634 54.2949C34.983 50.6028 35.2952 46.6864 36.8483 43.1962C38.4013 39.7061 41.1017 36.8523 44.5008 35.109C47.8999 33.3656 51.7931 32.8377 55.5337 33.6128L52.1381 49.9999L66.7512 41.8436Z" fill="#201A1A"/>
</svg>
