<svg width="307" height="307" viewBox="0 0 307 307" fill="none" xmlns="http://www.w3.org/2000/svg">
<path d="M234.655 263.974C229.3 273.271 219.388 279 208.66 279H99.3411C88.6123 279 78.7001 273.271 73.3451 263.974L18.6251 168.974C13.2864 159.705 13.2864 148.295 18.6252 139.026L73.3452 44.0263C78.7002 34.7294 88.6123 29 99.3411 29H208.66C219.388 29 229.3 34.7295 234.655 44.0263L289.375 139.026C294.714 148.295 294.714 159.705 289.375 168.974L234.655 263.974Z" fill="#71dba7"/>
<circle cx="154.046" cy="153.311" r="58.8844" fill="white"/>
<path d="M192.427 143.969C194.352 152.223 193.565 160.877 190.183 168.648C186.8 176.419 181.003 182.892 173.651 187.108C166.3 191.324 157.784 193.058 149.369 192.052C140.954 191.047 133.087 187.355 126.936 181.526C120.785 175.696 116.676 168.038 115.221 159.689C113.765 151.34 115.039 142.744 118.855 135.177C122.67 127.609 128.823 121.473 136.402 117.679C143.98 113.885 152.579 112.635 160.924 114.114L154.046 152.92L192.427 143.969Z" fill="black"/>
</svg>
