<svg width="25" height="25" viewBox="0 0 25 25" xmlns="http://www.w3.org/2000/svg">
<path d="M12.9595 9.33882C11.2254 10.0614 6.22529 12.1134 6.22529 12.1134C5.04029 12.5759 5.73404 13.0094 5.73404 13.0094C5.73404 13.0094 6.7456 13.3563 7.61265 13.6163C8.4797 13.8764 8.94201 13.5874 8.94201 13.5874C8.94201 13.5874 10.9653 12.2579 13.0172 10.8418C14.4623 9.85913 14.1155 10.6683 13.7686 11.0152C13.0172 11.7667 11.7745 12.9515 10.734 13.9054C10.2715 14.31 10.5028 14.6568 10.705 14.8301C11.2934 15.328 12.679 16.2334 13.3083 16.6445C13.4827 16.7586 13.599 16.8345 13.6241 16.8532C13.7686 16.969 14.5778 17.4891 15.0692 17.3736C15.5606 17.258 15.6183 16.5932 15.6183 16.5932C15.6183 16.5932 15.9941 14.2233 16.3409 12.0557C16.4991 11.0076 16.6573 10.0137 16.7507 9.36083C16.7937 9.05954 16.8231 8.83092 16.8322 8.70307C16.9189 7.72044 15.8784 8.12503 15.8784 8.12503C15.8784 8.12503 15.1124 8.43931 14.3417 8.75867C13.7904 8.98714 13.2366 9.2183 12.9595 9.33882Z"/>
<path fill-rule="evenodd" clip-rule="evenodd" d="M12.0635 22.2002C17.5863 22.2002 22.0635 17.723 22.0635 12.2002C22.0635 6.67727 17.5863 2.2002 12.0635 2.2002C6.54055 2.2002 2.06348 6.67727 2.06348 12.2002C2.06348 17.723 6.54055 22.2002 12.0635 22.2002ZM20.3294 12.2002C20.3294 16.7653 16.6286 20.4661 12.0635 20.4661C7.49834 20.4661 3.79758 16.7653 3.79758 12.2002C3.79758 7.63506 7.49834 3.93429 12.0635 3.93429C16.6286 3.93429 20.3294 7.63506 20.3294 12.2002Z" fill="white"/>
</svg>
