<svg width="25" height="25" viewBox="0 0 25 25" xmlns="http://www.w3.org/2000/svg">
<path fill-rule="evenodd" clip-rule="evenodd" d="M22.0327 12.2004C22.0327 17.7239 17.555 22.2017 12.0315 22.2017C6.50789 22.2017 2.03027 17.7239 2.03027 12.2004C2.03027 6.67684 6.50789 2.19922 12.0315 2.19922C17.555 2.19922 22.0327 6.67684 22.0327 12.2004ZM14.2077 8.80083C13.6911 9.01522 13.1877 9.22566 12.9276 9.33871C11.1933 10.0613 6.19259 12.1136 6.19259 12.1136C5.00745 12.5762 5.70129 13.0097 5.70129 13.0097C5.70129 13.0097 6.05385 13.1307 6.52102 13.2833C6.84536 13.3891 7.22488 13.5102 7.58012 13.6168C8.44728 13.8769 8.90965 13.5878 8.90965 13.5878C8.90965 13.5878 10.9332 12.2582 12.9853 10.8418C14.4306 9.85909 14.0838 10.6684 13.7369 11.0153C12.9853 11.7669 11.7424 12.9519 10.7018 13.9058C10.2393 14.3105 10.4706 14.6574 10.6729 14.8307C11.2613 15.3286 12.6471 16.2342 13.2765 16.6453C13.4509 16.7594 13.5672 16.8353 13.5923 16.8541C13.7369 16.9698 14.5462 17.49 15.0376 17.3744C15.529 17.2588 15.5868 16.5939 15.5868 16.5939L15.8494 14.9402C15.9822 14.1054 16.1489 13.059 16.3094 12.0559C16.3735 11.6319 16.4374 11.2168 16.4971 10.8296C16.6532 9.81746 16.78 8.99561 16.8008 8.70288C16.8875 7.72014 15.8469 8.12478 15.8469 8.12478C15.8469 8.12478 15.0115 8.46747 14.2077 8.80083Z"/>
</svg>
