<svg width="25" height="25" viewBox="0 0 25 25" xmlns="http://www.w3.org/2000/svg">
<path fill-rule="evenodd" clip-rule="evenodd" d="M12.0315 22.2017C17.555 22.2017 22.0327 17.7239 22.0327 12.2004C22.0327 6.67684 17.555 2.19922 12.0315 2.19922C6.50789 2.19922 2.03027 6.67684 2.03027 12.2004C2.03027 17.7239 6.50789 22.2017 12.0315 22.2017ZM17.1018 8.56086C17.6455 8.4959 18.1635 8.3518 18.6455 8.13782C18.2852 8.67658 17.8294 9.14984 17.3043 9.52921C17.4746 13.3093 14.6553 17.5238 9.66505 17.5238C8.14757 17.5238 6.73435 17.079 5.54492 16.3164C6.9707 16.4845 8.3943 16.0888 9.52422 15.2029C8.34735 15.181 7.35498 14.4043 7.01328 13.3366C7.43468 13.4174 7.84899 13.3933 8.22726 13.2907C6.93468 13.0314 6.0422 11.8666 6.07167 10.6215C6.43358 10.8229 6.84843 10.9435 7.28839 10.9577C6.09187 10.1575 5.7529 8.57724 6.45705 7.36926C7.78294 8.99537 9.76331 10.0652 11.9964 10.1771C11.6045 8.49645 12.8796 6.87744 14.6149 6.87744C15.3878 6.87744 16.0871 7.20386 16.5767 7.72625C17.1892 7.60561 17.7645 7.38181 18.2836 7.07395C18.0833 7.70168 17.657 8.22844 17.1018 8.56086Z" fill="white"/>
</svg>
